<?xml version="1.0" encoding="utf-8"?>
<!-- Generator: Adobe Illustrator 19.0.0, SVG Export Plug-In . SVG Version: 6.00 Build 0)  -->
<svg version="1.1" id="Calque_1" xmlns="http://www.w3.org/2000/svg" xmlns:xlink="http://www.w3.org/1999/xlink" x="0px" y="0px"
	 viewBox="0 0 300.1 140.6" style="enable-background:new 0 0 300.1 140.6;" xml:space="preserve">
<style type="text/css">
	.st0{fill:#009B3E;}
</style>
<g>
	<path class="st0" d="M61.5,91.9c0,7.3-6,13.3-13.3,13.3c-7.3,0-13.3-6-13.3-13.3c0-7.3,6-13.3,13.3-13.3
		C55.6,78.6,61.5,84.5,61.5,91.9"/>
	<g>
		<path d="M184.1,77.8c0-3.8-1.6-6.9-4.8-9.4c-3-2.3-6.4-3.5-10.3-3.5c-8.8,0-14.2,3.5-16.5,10.6l9.5,3.3c1.2-2.6,3.5-3.9,6.9-3.9
			c3.1,0,4.6,1.3,4.6,3.8v1.2c0,0.7-0.4,1-1.3,1c-2.5,0-4.6,0-6.3,0.1c-9.9,0.5-14.9,4.8-14.9,13c0,4.1,1.5,7.4,4.6,9.9
			c2.8,2.3,6.3,3.5,10.6,3.5c3.4,0,6.5-0.7,9.2-2.2c0,0,0.8,2.1,2.9,1.4c2.1-0.7,7.6-2.2,7.6-2.2l-1.8-5.9V77.8z M173.6,94.6
			c-2.2,1.7-4.6,2.6-7.1,2.6c-1.3,0-2.4-0.3-3.5-1c-1.2-0.7-1.8-1.7-1.8-3c0-2.3,1.6-3.6,4.9-4c2.5-0.2,5-0.4,7.5-0.6V94.6z"/>
		<path d="M206.9,64.5c-3,0-5.6,0.9-7.7,2.6c0,0-0.3-1.7-2.4-1.7h-7.2v40.8h11.2V81.5c0-1.7,0.5-3.1,1.6-4.2c1-1.1,2.4-1.7,4-1.7
			c4.1,0,6.1,2.6,6.1,7.9v22.7h11.2v-23C223.8,70.8,218.2,64.5,206.9,64.5z"/>
		<path d="M246.6,75.5c2.4,0,5.1,1.7,8.1,5l8.1-7.4c-2.8-2.9-5.2-4.9-7.2-6c-2.7-1.5-5.7-2.3-9-2.3c-6,0-10.8,2.1-14.4,6.2
			c-3.4,3.9-5,8.8-5,15c0,6.1,1.7,11.1,5,15c3.6,4.1,8.4,6.1,14.4,6.1c3.4,0,6.4-0.8,9-2.2c2-1.2,4.4-3.2,7.2-6l-8.1-7.4
			c-3,3.4-5.7,5-8.1,5c-5.4,0-8-3.5-8-10.4C238.6,79,241.3,75.5,246.6,75.5z"/>
		<path d="M298.8,87.8c0-6.2-0.5-10.4-1.5-12.7c-1.2-2.9-3.2-5.4-6-7.4c-2.8-2-5.7-3-8.8-3c-6,0-10.7,2.1-14.1,6.2
			c-3.3,3.9-4.9,8.8-4.9,15c0,6.1,1.7,11.1,5,15c3.6,4.1,8.4,6.1,14.4,6.1c3.1,0,6-0.7,8.5-2c2-1.1,4.3-2.9,6.9-5.5l-7.6-7.5
			c-2.7,2.9-5.2,4.4-7.7,4.4c-4.8,0-7.4-2.6-7.9-7.9h23.7V87.8z M275.2,81.5c0.8-4.3,3-6.4,6.9-6.4c3.6,0,5.7,2.1,6.3,6.4H275.2z"/>
		<path d="M154.9,63.9c2.8-2.2,2.1-6.7-2.5-3.3c-6.3,4.6-10,4.6-14.5,4.8l-6.4-0.2l-3.1-0.1v-17h-10.7v47.3c0,4.4,1.2,7.5,3.6,9.3
			c1.6,1.2,4,1.1,7.1,1.4V94.5c0,0,0-0.1,0-0.1V69.7c1.5,0.5,2.8,0.9,3.2,1.1c0.7,0.3,3.7,2,3.7,7.5v28h11V79.6l0,0
			c0,0,0.1-2.3,0.9-5.4C147.9,71.1,153.8,64.7,154.9,63.9z"/>
		<path d="M140.8,62.2c1.8,0,3.3-0.6,4.5-1.9c1.2-1.2,1.9-2.8,1.9-4.5c0-1.8-0.6-3.3-1.9-4.5c-1.2-1.2-2.7-1.9-4.5-1.9
			c-1.8,0-3.3,0.6-4.5,1.9c-1.2,1.3-1.9,2.7-1.9,4.5c0,1.8,0.6,3.3,1.9,4.5C137.5,61.5,139,62.2,140.8,62.2z"/>
		<polygon points="56.3,1.5 44.7,1.5 32.6,1.5 48.2,34.4 34.8,18.8 0,105.9 22.5,105.9 31.8,80.3 38.5,62 48.3,34.6 58.3,62 
			65,80.3 74.3,105.9 97,105.9 61.8,15.1 		"/>
		<path d="M99.9,94.3c0,0.1,0,0.1,0,0.1v11.6c3.2-0.3,5.5-0.1,7.1-1.4c2.4-1.8,3.6-4.9,3.6-9.3V48.1H99.9V94.3z"/>
		<path d="M97.3,37.1c3.7,9.1,13.6,7.3,13.6,7.3C107.6,33.9,97.3,37.1,97.3,37.1z"/>
		<path d="M114.5,27.1c-7.1,7-0.8,14.5-0.8,14.5C122.2,34.3,114.5,27.1,114.5,27.1z"/>
		<path d="M131.9,37.1c0,0-10.4-3.1-13.5,7.3C118.5,44.4,128.5,46.2,131.9,37.1z"/>
		<path d="M102.1,22.5c-3.2,8.6,5.3,12.9,5.3,12.9C111.7,26,102.1,22.5,102.1,22.5z"/>
		<path d="M110.6,26.6c4.4-8-2.9-11.5-2.9-11.5C104.3,22.4,110.6,26.6,110.6,26.6z"/>
		<path d="M114.7,0.7c-8.1,6.5-2.6,14.8-2.6,14.8C121.8,8.9,114.7,0.7,114.7,0.7z"/>
		<path d="M123.9,9.3c-6.7,6.4-0.5,13.6-0.5,13.6C131.4,16.2,123.9,9.3,123.9,9.3z"/>
		<path d="M98.6,33.4c-6.5-7.3-14.3-2.6-14.3-2.6C90.7,36.9,98.6,33.4,98.6,33.4z"/>
		<path d="M103.1,20.5C105,10,94.8,7.2,94.8,7.2C93.8,16.8,103.1,20.5,103.1,20.5z"/>
		<path d="M94.9,17.8c-0.7-7.2-7.8-6.9-7.8-6.9C88.2,17.3,94.9,17.8,94.9,17.8z"/>
		<path d="M124.1,0c-6.1,3.1-4.2,9.2-4.2,9.2C127,6.2,124.1,0,124.1,0z"/>
		<path d="M98.5,27.2c-2.1-9.9-11.8-7.3-11.8-7.3C89.2,28.5,98.5,27.2,98.5,27.2z"/>
		<path d="M118.1,26.9c4.6-6.4-1.9-10.2-1.9-10.2C112.4,22.6,118.1,26.9,118.1,26.9z"/>
		<path d="M128.5,4.7c-3.5,3.9,0,7.6,0,7.6C132.7,8.3,128.5,4.7,128.5,4.7z"/>
		<path d="M106.5,13.3c3.7-6-2.5-9.1-2.5-9.1C101.1,9.9,106.5,13.3,106.5,13.3z"/>
		<path d="M122,34.8c0,0,9.6-2.6,8.3-12.1C130.3,22.7,119.6,24.3,122,34.8z"/>
		<path d="M144.2,30c0,0-7.2-4.6-13.1,3.7C131.1,33.7,138.5,37.1,144.2,30z"/>
		<path d="M146.6,22.2c0,0-5-1.2-6.5,4.5C140.1,26.7,145,27.2,146.6,22.2z"/>
		<path d="M133.4,27.7c0,0,7.9-1.8,7.4-10.7C140.8,16.9,132.2,17.7,133.4,27.7z"/>
		<path d="M131.3,20c0,0,7.9-3.8,5-11.9C136.4,8.1,127.4,11.1,131.3,20z"/>
	</g>
	<g>
		<path class="st0" d="M260.1,123.1c-1.5,0-2.3,1.2-2.3,3.6c0,2.4,0.8,3.6,2.3,3.6c1.5,0,2.3-1.2,2.3-3.6c0-1.2-0.2-2.1-0.5-2.7
			C261.5,123.4,260.9,123.1,260.1,123.1z"/>
		<path class="st0" d="M251.4,127.7c-0.2-0.1-0.4-0.2-0.6-0.3c-0.2-0.1-0.5-0.1-0.8-0.1h-0.9v3.1c0.1,0,0.3,0,0.5,0
			c0.2,0,0.3,0,0.5,0c0.2,0,0.4,0,0.6-0.1c0.2,0,0.4-0.1,0.6-0.2c0.2-0.1,0.4-0.3,0.5-0.5c0.1-0.2,0.2-0.5,0.2-0.8
			c0-0.3,0-0.6-0.1-0.8C251.8,128,251.6,127.8,251.4,127.7z"/>
		<path class="st0" d="M250.4,125.7c0.2,0,0.4-0.1,0.6-0.2c0.2-0.1,0.3-0.3,0.4-0.5c0.1-0.2,0.1-0.4,0.1-0.7c0-0.3,0-0.5-0.1-0.7
			c-0.1-0.2-0.2-0.3-0.4-0.4c-0.2-0.1-0.3-0.2-0.5-0.2c-0.2,0-0.4-0.1-0.6-0.1c-0.3,0-0.5,0-0.7,0v2.8h0.6
			C250,125.7,250.2,125.7,250.4,125.7z"/>
		<path class="st0" d="M204.3,123.1c-1.5,0-2.3,1.2-2.3,3.6c0,2.4,0.8,3.6,2.3,3.6c1.5,0,2.3-1.2,2.3-3.6c0-1.2-0.2-2.1-0.5-2.7
			C205.6,123.4,205.1,123.1,204.3,123.1z"/>
		<path class="st0" d="M98.9,116.7c0,0-17.1,0.7,1.7,2.3c30.4,2.5,54.5,7.9,65.5,10.7c41.3,10.5,122.4,22.9,134-13H98.9z M221.2,119
			c0.1,0,0.3,0,0.5-0.1c0.2,0,0.5,0,0.7,0c0.3,0,0.5,0,0.7,0c0.2,0,0.4,0,0.6,0.1l1.6,1.5c-0.1,0-0.3,0.1-0.5,0.1
			c-0.2,0-0.4,0-0.6,0c-0.2,0-0.4,0-0.6,0c-0.2,0-0.4,0-0.5-0.1l-0.7-0.7l-0.7,0.7c-0.1,0-0.1,0-0.2,0c-0.1,0-0.2,0-0.3,0
			c-0.1,0-0.2,0-0.3,0c-0.1,0-0.2,0-0.3,0c-0.2,0-0.4,0-0.5,0c-0.2,0-0.3,0-0.5-0.1L221.2,119z M198.5,123.3h-3.8v2.5h3.1
			c0.1,0.3,0.1,0.6,0.1,0.9c0,0.3,0,0.6-0.1,0.9h-3.1v4.4c-0.4,0.1-0.7,0.1-1.1,0.1c-0.4,0-0.7,0-1.1-0.1v-10.6h6
			c0.1,0.3,0.1,0.6,0.1,0.9C198.6,122.7,198.6,123,198.5,123.3z M208.6,128.9c-0.2,0.7-0.5,1.2-0.8,1.7c-0.4,0.5-0.8,0.9-1.4,1.1
			c-0.6,0.3-1.3,0.4-2.1,0.4c-0.8,0-1.5-0.1-2.1-0.4c-0.6-0.3-1.1-0.7-1.4-1.1c-0.4-0.5-0.7-1.1-0.8-1.7c-0.2-0.7-0.3-1.4-0.3-2.2
			c0-0.8,0.1-1.5,0.3-2.2c0.2-0.7,0.5-1.2,0.8-1.7c0.4-0.5,0.8-0.9,1.4-1.1c0.6-0.3,1.3-0.4,2.1-0.4c0.8,0,1.5,0.1,2.1,0.4
			c0.6,0.3,1.1,0.7,1.4,1.1c0.4,0.5,0.7,1.1,0.8,1.7c0.2,0.7,0.3,1.4,0.3,2.2C208.9,127.5,208.8,128.3,208.6,128.9z M217.8,132.1
			c-0.2,0-0.4,0-0.7,0c-0.4,0-0.7,0-1.1-0.1l-2.8-4.9l0.4-0.2c0.1-0.1,0.3-0.2,0.5-0.3c0.2-0.1,0.4-0.2,0.6-0.4
			c0.2-0.2,0.3-0.4,0.5-0.6c0.1-0.2,0.2-0.5,0.2-0.8c0-0.6-0.2-1.1-0.5-1.4c-0.4-0.3-0.8-0.4-1.4-0.4c-0.2,0-0.4,0-0.6,0v8.9
			c-0.2,0-0.3,0-0.5,0c-0.2,0-0.3,0-0.5,0c-0.2,0-0.3,0-0.5,0c-0.2,0-0.4,0-0.6-0.1v-10.6c0.4,0,0.8-0.1,1.2-0.1
			c0.4,0,0.8-0.1,1.3-0.1c0.5,0,1.1,0.1,1.6,0.1c0.5,0.1,1,0.3,1.4,0.5c0.4,0.3,0.8,0.6,1,1c0.3,0.4,0.4,1,0.4,1.6
			c0,0.4-0.1,0.7-0.1,1c-0.1,0.3-0.2,0.6-0.4,0.8c-0.2,0.2-0.3,0.4-0.5,0.6c-0.2,0.2-0.3,0.3-0.5,0.4l-0.2,0.2l2.6,4.5
			C218.2,132,218,132,217.8,132.1z M225.7,132h-6.1v-10.6h6c0.1,0.3,0.1,0.6,0.1,0.9c0,0.3,0,0.6-0.1,0.9h-3.9v2.3h3.1
			c0.1,0.3,0.1,0.6,0.1,0.9c0,0.3,0,0.6-0.1,0.9h-3.1v2.8h4c0.1,0.3,0.1,0.6,0.1,0.9C225.8,131.4,225.8,131.7,225.7,132z
			 M234.3,123.3h-2.6v8.7c-0.2,0-0.4,0-0.5,0c-0.2,0-0.3,0-0.5,0c-0.2,0-0.3,0-0.5,0c-0.2,0-0.4,0-0.6-0.1v-8.7h-2.6
			c-0.1-0.3-0.1-0.6-0.1-0.9c0-0.3,0-0.6,0.1-0.9h7.4c0.1,0.3,0.1,0.6,0.1,0.9C234.4,122.7,234.3,123,234.3,123.3z M241.9,130.2
			c-0.2,0.4-0.4,0.8-0.8,1.1c-0.3,0.3-0.8,0.5-1.3,0.7c-0.5,0.2-1.1,0.2-1.7,0.2c-0.3,0-0.6,0-0.9,0c-0.3,0-0.5-0.1-0.7-0.1
			c-0.2,0-0.5-0.1-0.7-0.2c-0.2-0.1-0.5-0.2-0.7-0.3c0-0.3,0.1-0.6,0.2-0.9c0.1-0.3,0.2-0.6,0.3-0.9c0.4,0.2,0.8,0.3,1.2,0.4
			c0.4,0.1,0.7,0.1,1.2,0.1c0.6,0,1.1-0.1,1.5-0.4c0.4-0.2,0.5-0.6,0.5-1c0-0.2,0-0.4-0.1-0.6c-0.1-0.2-0.2-0.3-0.3-0.4
			c-0.1-0.1-0.3-0.2-0.4-0.3c-0.2-0.1-0.3-0.1-0.5-0.2l-0.9-0.3c-0.3-0.1-0.6-0.3-0.9-0.4c-0.3-0.2-0.5-0.3-0.7-0.5
			c-0.2-0.2-0.3-0.5-0.4-0.8c-0.1-0.3-0.2-0.6-0.2-1.1c0-0.5,0.1-0.9,0.3-1.3c0.2-0.4,0.4-0.7,0.7-1c0.3-0.3,0.7-0.5,1.1-0.6
			c0.4-0.1,0.9-0.2,1.5-0.2c0.5,0,1,0.1,1.4,0.1c0.4,0.1,0.9,0.2,1.4,0.4c-0.1,0.6-0.2,1.1-0.5,1.7c-0.1-0.1-0.3-0.1-0.5-0.2
			c-0.2-0.1-0.3-0.1-0.5-0.1c-0.2,0-0.4-0.1-0.6-0.1c-0.2,0-0.5,0-0.7,0c-0.2,0-0.3,0-0.5,0c-0.2,0-0.3,0.1-0.5,0.2
			c-0.1,0.1-0.3,0.2-0.3,0.3c-0.1,0.2-0.1,0.4-0.1,0.6c0,0.2,0,0.4,0.1,0.5c0.1,0.1,0.2,0.2,0.3,0.3c0.1,0.1,0.3,0.2,0.4,0.2
			c0.1,0.1,0.3,0.1,0.4,0.2l0.9,0.3c0.4,0.1,0.7,0.3,1,0.5c0.3,0.2,0.6,0.4,0.8,0.6c0.2,0.2,0.4,0.5,0.5,0.8
			c0.1,0.3,0.2,0.7,0.2,1.2C242.1,129.3,242,129.8,241.9,130.2z M253.8,130.6c-0.2,0.4-0.6,0.7-1,1c-0.4,0.2-0.9,0.4-1.4,0.5
			c-0.5,0.1-1.1,0.1-1.7,0.1c-0.4,0-0.9,0-1.3,0c-0.4,0-0.9-0.1-1.5-0.1v-10.6c0.3-0.1,0.7-0.1,1.1-0.1c0.4,0,0.9-0.1,1.5-0.1
			c0.5,0,1,0.1,1.5,0.1c0.5,0.1,0.9,0.2,1.3,0.4c0.4,0.2,0.6,0.5,0.8,0.8c0.2,0.4,0.3,0.8,0.3,1.3c0,0.3,0,0.6-0.1,0.9
			c-0.1,0.3-0.2,0.5-0.4,0.7c-0.2,0.2-0.3,0.4-0.5,0.5c-0.2,0.1-0.4,0.2-0.6,0.2c0.2,0,0.5,0.1,0.7,0.2c0.3,0.1,0.5,0.3,0.8,0.5
			c0.2,0.2,0.4,0.5,0.6,0.8c0.2,0.3,0.2,0.7,0.2,1.2C254.2,129.7,254.1,130.2,253.8,130.6z M264.4,128.9c-0.2,0.7-0.5,1.2-0.8,1.7
			c-0.4,0.5-0.8,0.9-1.4,1.1c-0.6,0.3-1.3,0.4-2.1,0.4c-0.8,0-1.5-0.1-2.1-0.4c-0.6-0.3-1.1-0.7-1.4-1.1c-0.4-0.5-0.6-1.1-0.8-1.7
			c-0.2-0.7-0.3-1.4-0.3-2.2c0-0.8,0.1-1.5,0.3-2.2c0.2-0.7,0.5-1.2,0.8-1.7c0.4-0.5,0.9-0.9,1.4-1.1c0.6-0.3,1.3-0.4,2.1-0.4
			c0.8,0,1.5,0.1,2.1,0.4c0.6,0.3,1.1,0.7,1.4,1.1c0.4,0.5,0.7,1.1,0.8,1.7c0.2,0.7,0.3,1.4,0.3,2.2
			C264.7,127.5,264.6,128.3,264.4,128.9z M268.6,132c-0.4,0.1-0.7,0.1-1.1,0.1c-0.4,0-0.7,0-1.1-0.1v-10.6c0.4-0.1,0.7-0.1,1.1-0.1
			c0.4,0,0.7,0,1.1,0.1V132z M276.9,130.2c-0.2,0.4-0.4,0.8-0.8,1.1c-0.3,0.3-0.8,0.5-1.3,0.7c-0.5,0.2-1.1,0.2-1.7,0.2
			c-0.3,0-0.6,0-0.9,0c-0.3,0-0.5-0.1-0.7-0.1c-0.2,0-0.5-0.1-0.7-0.2c-0.2-0.1-0.5-0.2-0.7-0.3c0-0.3,0.1-0.6,0.2-0.9
			c0.1-0.3,0.2-0.6,0.3-0.9c0.4,0.2,0.8,0.3,1.2,0.4c0.4,0.1,0.8,0.1,1.2,0.1c0.6,0,1.1-0.1,1.5-0.4c0.4-0.2,0.5-0.6,0.5-1
			c0-0.2,0-0.4-0.1-0.6c-0.1-0.2-0.2-0.3-0.3-0.4c-0.1-0.1-0.3-0.2-0.5-0.3c-0.2-0.1-0.3-0.1-0.5-0.2l-0.9-0.3
			c-0.3-0.1-0.6-0.3-0.9-0.4c-0.3-0.2-0.5-0.3-0.7-0.5c-0.2-0.2-0.3-0.5-0.4-0.8c-0.1-0.3-0.2-0.6-0.2-1.1c0-0.5,0.1-0.9,0.3-1.3
			c0.2-0.4,0.4-0.7,0.7-1c0.3-0.3,0.7-0.5,1.1-0.6c0.4-0.1,0.9-0.2,1.5-0.2c0.5,0,1,0.1,1.4,0.1c0.4,0.1,0.9,0.2,1.4,0.4
			c-0.1,0.6-0.2,1.1-0.5,1.7c-0.1-0.1-0.3-0.1-0.4-0.2c-0.2-0.1-0.3-0.1-0.5-0.1c-0.2,0-0.4-0.1-0.6-0.1c-0.2,0-0.5,0-0.7,0
			c-0.2,0-0.3,0-0.5,0c-0.2,0-0.3,0.1-0.5,0.2c-0.1,0.1-0.3,0.2-0.3,0.3c-0.1,0.2-0.1,0.4-0.1,0.6c0,0.2,0,0.4,0.1,0.5
			c0.1,0.1,0.2,0.2,0.3,0.3c0.1,0.1,0.2,0.2,0.4,0.2c0.1,0.1,0.3,0.1,0.4,0.2l0.9,0.3c0.4,0.1,0.7,0.3,1,0.5
			c0.3,0.2,0.6,0.4,0.8,0.6c0.2,0.2,0.4,0.5,0.5,0.8c0.1,0.3,0.2,0.7,0.2,1.2C277.2,129.3,277.1,129.8,276.9,130.2z"/>
	</g>
</g>
</svg>
